<?xml version="1.0" encoding="utf-8"?>
<!-- Generator: Adobe Illustrator 22.1.0, SVG Export Plug-In . SVG Version: 6.00 Build 0)  -->
<svg version="1.1" id="Capa_1" xmlns="http://www.w3.org/2000/svg" xmlns:xlink="http://www.w3.org/1999/xlink" x="0px" y="0px"
	 viewBox="0 0 132 142.1" style="enable-background:new 0 0 132 142.1;" xml:space="preserve">
<style type="text/css">
	.st0{fill:url(#SVGID_1_);}
	.st1{fill:url(#SVGID_2_);}
	.st2{fill:url(#SVGID_3_);}
	.st3{fill:#FFD03A;}
	.st4{fill:#E5B11B;}
	.st5{fill:#BFE2E4;}
	.st6{fill:#FFFFFF;}
	.st7{fill:#010101;}
	.st8{fill:#050506;}
</style>
<title>horse</title>
<linearGradient id="SVGID_1_" gradientUnits="userSpaceOnUse" x1="106.7205" y1="89.7239" x2="62.5505" y2="94.9739" gradientTransform="matrix(1 0 0 -1 -9 138.59)">
	<stop  offset="0" style="stop-color:#BFBF92"/>
	<stop  offset="1" style="stop-color:#34B18D"/>
</linearGradient>
<path class="st0" d="M72,49.2C69.2,39,59.4,26.8,57.2,24.3s3-6.9-0.5-15.7c-1.1-2.8-2.6-4-4.1-3.9c-0.2,0.5-0.5,1-0.7,1.7
	c0,0,1.9,6.6,0,12.3s-3.9,8,0.4,14.1s12.1,10.4,12.3,26.2s-3.9,17.4-3.9,17.4l0,0c2.5,4.3,4.3,7.5,4.3,7.5S74.8,59.5,72,49.2z"/>
<linearGradient id="SVGID_2_" gradientUnits="userSpaceOnUse" x1="107.3872" y1="64.4663" x2="14.864" y2="75.4721" gradientTransform="matrix(1 0 0 -1 -9 138.59)">
	<stop  offset="2.747443e-02" style="stop-color:#BFBF92"/>
	<stop  offset="1" style="stop-color:#34B18D"/>
</linearGradient>
<path class="st1" d="M99.6,91.8c-3.7,6.1-8.3,11.4-11.8,17.7c-1,1.6-1.5,3.4-1.6,5.3c0,1.3,0.5,2.5,1.5,3.3
	c3.8,2.9,11.1-5.4,11.9,1.4c1.4,11.2-12.5,19.1-22,18.4c-10.1-0.7-21.4-7.3-23.8-17.8c-1.2-5.4,0.2-11.1,2.3-16.2
	c4.3-10.4,9.3-20.3,13-31c2.4-7.1,7.7-21,0.2-27c-19.9-15.6-41.2-9.5-47.7-6.9S2.6,38.2,1.5,29.4s5.8-14,7.7-12s-0.1,8.5,9.5,7.4
	c5.3-0.6,8.5-5.8,10.7-10.1c11.9-23,40.2-9.7,54.8,2.9c12.2,10.4,20.1,24.9,22.2,40.8c1.2,9.4-0.2,18.9-3.8,27.6
	C101.7,88,100.8,89.9,99.6,91.8z"/>
<linearGradient id="SVGID_3_" gradientUnits="userSpaceOnUse" x1="9.0054" y1="67.5297" x2="121.3195" y2="67.5297" gradientTransform="matrix(1 0 0 -1 -9 138.59)">
	<stop  offset="0" style="stop-color:#B8348B"/>
	<stop  offset="1" style="stop-color:#60B884"/>
</linearGradient>
<path class="st2" d="M102.6,93.5c-2.6,4.3-5.6,8.1-8.2,11.9c-2.5,3.6-5.5,8.5-4.6,9.8c0.2,0.4,0.1,0.1-0.1,0c0.5-0.1,1-0.2,1.5-0.4
	c0.9-0.3,2-0.8,3.4-1.3c1-0.3,2-0.5,3-0.4c1.7,0.1,3.3,0.9,4.3,2.2c1.7,2.7,1.4,4.1,1.6,5.6c0.1,1.6-0.1,3.1-0.6,4.6
	c-0.8,2.9-2.3,5.6-4.3,7.8c-3.9,4-8.8,6.8-14.3,8.1c-2.8,0.7-5.6,0.9-8.4,0.5c-2.7-0.4-5.3-1-7.8-2c-5.1-1.9-9.7-5-13.2-9.2
	c-3.7-4.4-5.5-10-5.2-15.8c0.2-5.5,2.2-10.5,4.2-14.9l5.9-13c2-4.3,3.9-8.6,5.5-12.9c1.7-4.3,3.2-8.6,4.3-13.1
	c1-4.2,1.2-8.8-0.7-11.6c-0.8-1.3-2.8-2.6-4.6-3.9c-1.9-1.2-3.8-2.4-5.8-3.4c-8.2-3.9-17.4-5.3-26.4-4c-2.3,0.3-4.5,0.8-6.7,1.4
	c-1.1,0.3-2.1,0.7-3.2,1.1c-1.3,0.5-2.6,0.7-4,0.8C13,42,7.8,40.2,3.9,36.8c-2-1.8-3.3-4.3-3.7-7c-0.3-2.6,0-5.2,0.9-7.7
	c1-2.6,2.8-4.7,5.2-6c0.8-0.4,1.7-0.5,2.6-0.4c1,0.3,1.8,1,2.1,2c0.5,1.4,0.7,2.5,1.1,3.4c0.7,1.8,2.4,2.4,4.6,2.4
	c2.1,0.1,4.1-0.5,5.8-1.8c1.7-1.4,3.1-3.1,4.2-5c1-1.9,2.2-4.1,3.5-6.3C33,6.3,37.1,3,42,1.3c4.9-1.5,10.1-1.7,15.2-0.7
	c10,1.8,18.9,6.4,27.1,12c8.3,5.9,15.2,13.5,20.1,22.4c2.5,4.5,4.5,9.3,5.8,14.2c1.5,5,2.2,10.2,2.1,15.4
	C111.8,75.2,107.8,84.9,102.6,93.5z M96.7,90c4.4-7.6,5.3-17,4.7-25.4c-0.3-8.7-2.4-17.2-6.1-25c-3.8-8-9.2-15.2-15.9-21
	C72.6,12.9,64.7,7.8,56.1,5.5c-4.2-1.3-8.7-1.4-13-0.4c-4.2,1.1-7.9,3.7-10.5,7.3c-2.6,3.4-4.4,8.5-8.7,11.7
	c-2.2,1.6-4.8,2.4-7.5,2.2c-1.4,0-2.7-0.3-4-0.9c-1.3-0.7-2.4-1.8-3-3.3c-0.5-1.3-0.7-2.6-1-3.4c-0.2-0.5-0.3-0.5-0.3-0.5
	c-0.3,0-0.6,0-0.9,0.2c-1.8,1-3.1,2.7-3.8,4.6c-0.7,2-1,4.2-0.6,6.3c0.4,2,1.4,3.9,3,5.2c3.4,2.8,7.7,4.1,12,3.6c1-0.1,2-0.3,3-0.7
	c1.1-0.5,2.3-0.9,3.5-1.3c2.3-0.8,4.7-1.3,7.2-1.8c9.8-1.8,19.9-0.6,29,3.4c2.3,1,4.5,2.2,6.6,3.5c2,1.5,4.2,2.5,6.2,5.2
	c3.6,5.3,2.8,11.1,2,15.9C73.3,72.2,69.7,81,66,89.9l-5.5,13c-1.8,4.3-3.2,8.4-3.3,12.4c-0.5,7.8,6,14.4,13.8,17.1
	c1.9,0.7,4,1.1,6,1.4c1.9,0.2,3.8,0.1,5.7-0.3c3.9-0.9,7.4-2.8,10.2-5.6c1.2-1.2,2.2-2.7,2.7-4.4c0.3-0.8,0.4-1.6,0.4-2.4
	c0.1-0.8-0.3-1.8,0.1-1.2c0.3,0.4,0.8,0.6,1.3,0.7c-0.2,0-0.3,0-0.5,0.1c-0.8,0.2-2,0.7-3.3,1.1c-1.7,0.6-3.6,0.8-5.5,0.4
	c-2.3-0.6-4.2-2.4-4.9-4.8c-1.2-4,0.4-7.2,1.7-9.5s2.6-4.3,3.9-6.3C91.6,97.6,94.4,93.9,96.7,90z"/>
<polygon class="st3" points="95.2,28.9 101.1,4.8 107.8,28.9 132,33 108,37.5 101.1,64.8 95.2,37.5 71.1,33.2 "/>
<polygon class="st4" points="132,33 107.8,28.9 101.1,4.8 101.1,64.8 108,37.5 "/>
<polygon class="st3" points="85,82.6 72.5,84.8 85,87 88,101.1 88,70.2 "/>
<polygon class="st4" points="91.7,87 104.1,84.7 91.6,82.6 88.1,70.1 88,70.2 88,101.1 88.1,101.2 "/>
<path class="st5" d="M72,49.2C69.2,39,59.4,26.8,57.2,24.3s3-6.9-0.5-15.7c-1.1-2.8-2.6-4-4.1-3.9c-0.2,0.5-0.5,1-0.7,1.7
	c0,0,1.9,6.6,0,12.3s-3.9,8,0.4,14.1s12.1,10.4,12.3,26.2s-3.9,17.4-3.9,17.4l0,0c2.5,4.3,4.3,7.5,4.3,7.5S74.8,59.5,72,49.2z"/>
<path class="st6" d="M64.5,58.9c-0.2-15.8-8-20-12.3-26.2s-2.3-8.5-0.4-14.1s0-12.3,0-12.3c0.2-0.6,0.5-1.1,0.7-1.7
	c-3.3,0.2-6.7,6.3-6.8,15.2c-3.2,1.1-6.3,2.4-9.3,3.9L9.2,6.3l17.3,23.4c5.8,6.1-16,23.1-17.3,26.1c-2.8,6.5,0.4,7.5,0.4,7.5
	s4.6,3.5,14.1-1.1s17.1-10.6,22.4-6.7c3.4,2.5,10,13.2,14.5,20.7l0,0C60.7,76.3,64.8,74.7,64.5,58.9z"/>
<path class="st7" d="M39.7,38c0,0,5.8,0.7,9.5-2.6C52.8,32.3,48.2,42.2,39.7,38z"/>
<path class="st5" d="M14.2,10.2l18.3,17.8c0,0,0.8-1.6,5.9-3.8c1.3-0.6-0.4-0.6-2.8-2.2C29.2,17.7,14.2,10.2,14.2,10.2z"/>
<path class="st8" d="M65.4,86.7L64,84.1c0,0-1.8-3.2-4.3-7.5C53,65.3,48,58.1,45.6,56.3c-3.4-2.5-8.5,0.2-14.9,3.7
	c-1.9,1-4,2.1-6.1,3.2c-9.2,4.5-14.4,1.7-15.4,1c-0.8-0.4-1.5-1.1-1.9-1.9c-0.8-1.8-0.6-4.3,0.8-7.4c0.5-1,2-2.6,5.1-5.6
	c5.1-5,15.7-15.5,12.5-18.9L3.7,0.6l33,21.3c2.6-1.2,5.2-2.3,7.9-3.3c0.3-8.6,3.8-15.4,8.1-15.6c1.3-0.1,3.8,0.5,5.5,4.8
	c1.6,3.9,1.8,8.3,0.5,12.4c-0.5,1.8-0.6,2.5-0.2,2.9c2.3,2.5,12.2,14.8,15.2,25.5S67,83,66.6,84L65.4,86.7z M42.5,52.6
	c1.7,0,3.4,0.5,4.7,1.5c2.8,2,7.8,9.2,14.8,21.2c1.1,1.9,2.1,3.6,2.8,4.9c2.4-6.6,8-23.2,5.9-30.9C68.1,39,58.2,26.9,56.3,24.9
	c-1.5-1.6-1-3.5-0.4-5.6c1.2-3.5,1-7.2-0.4-10.6c-0.8-2-1.7-3-2.7-3c-2.2,0.1-5.4,5.4-5.5,13.8v1l-1,0.3c-3.1,1.1-6.2,2.4-9.2,3.8
	l-0.7,0.4L15.1,11.3l12.7,17.2c5,5.3-5.2,15.4-12.7,22.7c-1.6,1.5-3.1,3.1-4.5,4.8c-1.7,4-0.9,5.4-0.4,5.7l0.4,0.2
	c0.1,0.1,4.2,2.9,12.7-1.2c2.1-1,4.1-2.1,6-3.1C34.2,54.9,38.7,52.6,42.5,52.6z"/>
<polygon class="st3" points="69.2,51.6 72.3,39.1 75.8,51.6 88.3,53.7 75.9,56 72.3,70.2 69.2,56 56.7,53.8 "/>
<polygon class="st4" points="75.9,56 88.3,53.7 75.8,51.6 72.3,39.1 72.2,39.1 72.2,70.1 72.3,70.2 "/>
</svg>
